# xmcd
#
# Track frame offsets: 
#        150
#        12932
#        23727
#        35142
#        49550
#        64047
#        76275
#        88142
#        99195
#        112760
#        131885
#        151607
#
# Disc length: 2200 seconds
#
# Revision: 7
# Processed by: cddbd v1.5.2PL0 Copyright (c) Steve Scherf et al.
# Submitted via: ExactAudioCopyFreeDBPlugin 1.0
#
DISCID=8608960c
DTITLE=Various Artist - The Best of Chess Blues, Volume Two
DYEAR=1987
DGENRE=Blues
TTITLE0=Howlin' Wolf - Back Door Man
TTITLE1=Elmore James - Madison Blues
TTITLE2=Sonny Boy Williamson - Your Funeral My Trial
TTITLE3=Otis Rush - So Many Roads, So Many Trains
TTITLE4=Buddy Guy - My Time After Awhile
TTITLE5=Muddy Waters - You Shook Me
TTITLE6=Sonny Boy Williamson - Bring It on Home
TTITLE7=Howlin' Wolf - Little Red Rooster
TTITLE8=John Lee Hooker - One Bourbon, One Scotch, One Beer
TTITLE9=Etta James - Baby What You Want Me to Do
TTITLE10=Little Milton - Stormy Monday
TTITLE11=Koko Taylor - Wang Dang Doodle
EXTD=YEAR: 1987
EXTT0=
EXTT1=
EXTT2=
EXTT3=
EXTT4=
EXTT5=
EXTT6=
EXTT7=
EXTT8=
EXTT9=
EXTT10=
EXTT11=
PLAYORDER=
